<svg xmlns="http://www.w3.org/2000/svg" version="1.1" xmlns:xlink="http://www.w3.org/1999/xlink" width="100" height="100" x="0" y="0" viewBox="0 0 64 64" style="enable-background:new 0 0 512 512" xml:space="preserve"><g><path d="M7 43v2h50v-2H43v-7.465l2.555-1.7A1 1 0 0 0 46 33v-3a1 1 0 0 0-1-1h-1v-6a1 1 0 0 0-.293-.707l-.781-.781a2.033 2.033 0 1 0-1.414 1.414l.488.488V29h-4v-4a3.993 3.993 0 0 0-3.45-3.944 4 4 0 1 0-5.1 0A3.993 3.993 0 0 0 26 25v4h-4v-5.586l.488-.488a2.033 2.033 0 1 0-1.414-1.414l-.781.781A1 1 0 0 0 20 23v6h-1a1 1 0 0 0-1 1v3a1 1 0 0 0 .445.832L21 35.535V43Zm25-27a2 2 0 1 1-2 2 2 2 0 0 1 2-2Zm-4 9a2 2 0 0 1 2-2h4a2 2 0 0 1 2 2v4h-8Zm-8 7.465V31h24v1.465l-2.555 1.7A1 1 0 0 0 41 35v8H23v-8a1 1 0 0 0-.445-.832ZM3 17h3.586l4.707 4.707a1 1 0 0 0 1.687-.9L12.22 17H15a2 2 0 0 0 2-2V3a2 2 0 0 0-2-2H3a2 2 0 0 0-2 2v12a2 2 0 0 0 2 2ZM3 3h12v12h-4a1 1 0 0 0-.98 1.2l.352 1.762-2.665-2.669A1 1 0 0 0 7 15H3Z" fill="#000000" opacity="1" data-original="#000000"></path><path d="m8.116 12.182 4.949-4.95-1.414-1.414-4.242 4.243L6.349 9l-1.414 1.414L6.7 12.182a1 1 0 0 0 1.414 0ZM63 15V3a2 2 0 0 0-2-2H49a2 2 0 0 0-2 2v12a2 2 0 0 0 2 2h2.78l-.76 3.8a1 1 0 0 0 1.687.9l4.707-4.7H61a2 2 0 0 0 2-2Zm-6 0a1 1 0 0 0-.707.293l-2.665 2.665.352-1.758A1 1 0 0 0 53 15h-4V3h12v12Z" fill="#000000" opacity="1" data-original="#000000"></path><path d="M57.121 5.464 55 7.586l-2.121-2.122-1.414 1.414L53.586 9l-2.121 2.122 1.414 1.414L55 10.414l2.121 2.122 1.414-1.414L56.414 9l2.121-2.122-1.414-1.414zM32 54.818A12.836 12.836 0 0 0 43.8 47h-2.216a10.8 10.8 0 0 1-19.168 0H20.2A12.836 12.836 0 0 0 32 54.818Z" fill="#000000" opacity="1" data-original="#000000"></path><path d="M49.253 51.461a1.668 1.668 0 0 0 2.1-1.069L52.456 47h-2.1l-.8 2.456-1.256-.407a1.673 1.673 0 0 0-1.976.792 16.463 16.463 0 0 1-2.44 3.359 1.67 1.67 0 0 0-.141 2.123l.774 1.065-2.7 1.959-.774-1.066a1.668 1.668 0 0 0-2.066-.519 16.2 16.2 0 0 1-3.946 1.286 1.668 1.668 0 0 0-1.366 1.635V61h-3.332v-1.313a1.668 1.668 0 0 0-1.366-1.635 16.224 16.224 0 0 1-3.947-1.286 1.673 1.673 0 0 0-2.067.521l-.772 1.064-2.7-1.959.775-1.066a1.671 1.671 0 0 0-.143-2.124 16.429 16.429 0 0 1-2.441-3.361 1.672 1.672 0 0 0-1.976-.792l-1.254.407L13.646 47h-2.1l1.1 3.393a1.668 1.668 0 0 0 2.1 1.068l1.306-.423a18.356 18.356 0 0 0 2.425 3.338l-.807 1.111a1.67 1.67 0 0 0 .369 2.327l3.236 2.351A1.67 1.67 0 0 0 23.6 59.8l.8-1.109a18.2 18.2 0 0 0 3.925 1.279v1.367A1.669 1.669 0 0 0 30 63h4a1.669 1.669 0 0 0 1.667-1.667v-1.367a18.255 18.255 0 0 0 3.925-1.279l.8 1.11a1.672 1.672 0 0 0 2.329.368l3.236-2.351a1.67 1.67 0 0 0 .368-2.328l-.806-1.11a18.425 18.425 0 0 0 2.425-3.338Z" fill="#000000" opacity="1" data-original="#000000"></path></g></svg>