<svg width="61" height="61" viewBox="0 0 61 61" fill="none" xmlns="http://www.w3.org/2000/svg">
<path d="M44.9396 19.4424H61L60.9721 16.4767H44.9378V13.5056C44.9378 9.78878 43.4791 6.56329 40.5929 3.91867C37.7311 1.31617 34.214 0 30.1549 0C26.0958 0 22.9412 1.32143 20.2224 3.92394C17.4774 6.56856 16.0831 9.7958 16.0831 13.5056V16.4767H0V19.4424H16.0604V26.276H0V27.9028C0 30.8404 0.864459 33.2306 2.57246 34.982C3.86392 36.3473 5.49 37.2019 7.40889 37.5336C7.808 38.3602 8.3326 39.1112 8.97049 39.7641C10.6785 41.5646 12.9686 42.4789 15.7851 42.4789C18.6015 42.4789 21.0746 41.5646 22.821 39.7693C24.5725 38.0127 25.4527 35.6278 25.4527 32.6848V22.8469H22.4585V32.6848C22.4585 34.8609 21.8485 36.614 20.6529 37.8916C19.4207 39.2025 17.7841 39.8676 15.7833 39.8676C13.7825 39.8676 12.3185 39.2253 11.1473 37.8916C11.0602 37.7986 10.98 37.7073 10.9033 37.6091C13.1359 37.3423 14.9886 36.4614 16.4212 34.9855C18.1658 33.2271 19.0529 30.8387 19.0529 27.901V19.4407H28.9105V43.3054L21.0154 53.905V58.122H18.3349V61H42.6373V58.122H39.9567V53.905L32.2986 43.6266L31.91 43.1036V19.4424H41.9401V27.9028C41.9401 30.8404 42.8272 33.2306 44.5718 34.9873C45.9818 36.435 47.7979 37.316 49.9817 37.5985C49.8997 37.7021 49.8196 37.8003 49.7272 37.8986C48.5595 39.2271 47.0415 39.8676 45.0964 39.8676C43.1514 39.8676 41.4591 39.2043 40.2321 37.8916C39.033 36.6123 38.4213 34.8609 38.4213 32.6848V22.8469H35.4218V32.6848C35.4218 35.6225 36.3142 38.0127 38.0588 39.7693C39.8034 41.5646 42.1719 42.4789 45.0947 42.4789C48.0175 42.4789 50.2013 41.5646 51.9093 39.7693C52.5471 39.1112 53.0665 38.3654 53.4604 37.5547C55.4385 37.2388 57.1082 36.3736 58.4206 34.9873C60.1286 33.2289 60.9983 30.8404 60.9983 27.9028V26.276H44.9378V19.4424H44.9396ZM14.2566 33.1095C13.0087 34.431 11.4244 35.0785 9.40968 35.0855H9.3818C8.54872 35.0855 7.7714 34.9609 7.07948 34.71C6.18191 34.3888 5.4046 33.8554 4.75103 33.1165C3.82209 32.0934 3.25391 30.7597 3.07091 29.1558H15.9855C15.7973 30.7562 15.2134 32.0882 14.2566 33.1113V33.1095ZM37.0985 58.1237H23.8702V56.5777H37.0985V58.1237ZM35.861 53.6733H25.1076L29.5397 47.7471L30.4861 46.48L35.8628 53.6733H35.861ZM25.627 16.4767C25.8814 14.6709 26.4043 13.2617 27.0857 12.5755C27.9885 11.6665 28.8913 11.1067 30.5924 11.1067C32.1819 11.1067 32.9592 11.6016 33.9317 12.5755C34.7857 13.4354 35.143 15.2535 35.2929 16.4767H25.6252H25.627ZM42.0708 16.4767H38.2766C37.9368 14.1532 37.1473 12.1403 36.1521 11.0576C34.6219 9.39744 32.7535 8.56036 30.5906 8.56036C28.4277 8.56036 26.4304 9.39744 24.8305 11.0523C23.8039 12.1351 22.9883 14.1479 22.6362 16.4767H18.9937V13.5056C18.9937 10.3381 19.94 7.99353 21.9827 6.11579C24.4854 3.81338 27.2304 2.64988 30.1532 2.64988C33.2502 2.64988 36.1782 3.8204 38.8535 6.12106C41.0478 8.00932 42.0691 10.3539 42.0691 13.5056V16.4767H42.0708ZM57.9308 29.154C57.7409 30.7597 57.1797 32.0917 56.2507 33.1148H56.2455C55.564 33.8869 54.7431 34.4362 53.8037 34.7521C53.1397 34.9697 52.4042 35.0838 51.6147 35.0838H51.5014L51.4805 35.0785C49.5459 35.0522 47.9512 34.3871 46.7469 33.1095C45.7901 32.0864 45.2062 30.7597 45.0128 29.154H57.9343H57.9308Z" fill="#B6956A"/>
</svg>
