<svg xmlns="http://www.w3.org/2000/svg" xmlns:xlink="http://www.w3.org/1999/xlink" x="0px" y="0px" viewBox="0 0 6 17" style="enable-background:new 0 0 6 17;" xml:space="preserve"><path d="M0.5,2.8V3C0.5,3,0.5,3,0.5,2.8C0.5,2.9,0.5,2.9,0.5,2.8z"></path><path d="M5.3,2.6C5.2,2.5,5.1,2.4,4.9,2.4h-1V1c0-0.3-0.2-0.5-0.5-0.5H1C0.7,0.5,0.5,0.7,0.5,1v12.3c0,1.3,0.5,2,1.1,2.2v0.9 c0,0.3,0.2,0.5,0.5,0.5c0.3,0,0.5-0.2,0.5-0.5v-0.9c0.7-0.2,1.2-1,1.2-2.3V3.4h0.5l0,4.1C4.4,7.8,4.6,8,4.9,8c0.3,0,0.5-0.2,0.5-0.5 l0-4.6C5.4,2.8,5.4,2.7,5.3,2.6z M2.9,13.3c0,1.7-1.4,1.7-1.4,0V3.4h1.4V13.3z M2.9,2.4H1.5V1.5h1.4V2.4z"></path></svg>