<svg xmlns="http://www.w3.org/2000/svg" version="1.1" xmlns:xlink="http://www.w3.org/1999/xlink" width="100" height="100" x="0" y="0" viewBox="0 0 128 128" style="enable-background:new 0 0 512 512" xml:space="preserve"><g><path d="M119.159 60.112 102.63 29.279a3.977 3.977 0 0 0-5.38-1.622L86.889 33.21a3.948 3.948 0 0 0-1.924 2.354 3.942 3.942 0 0 0 .298 3.025l.015.027-2.794.956-17.905-2.628a1.494 1.494 0 0 0-1.127.292l-5.006 3.819H45.78l-3.173-2.222.129-.242a3.94 3.94 0 0 0 .3-3.024 3.945 3.945 0 0 0-1.925-2.357l-10.364-5.553a3.969 3.969 0 0 0-1.869-.468 3.975 3.975 0 0 0-3.51 2.093L8.843 60.111c-.501.934-.608 2.009-.301 3.027s.99 1.854 1.924 2.355L20.83 71.05a3.98 3.98 0 0 0 5.336-1.556c.047.02.091.044.142.06l1.934.595c.35.996 1.062 2.727 2.183 4.157.187.239.435.396.702.486l-.99.99a5.437 5.437 0 0 0-.001 7.676 5.397 5.397 0 0 0 3.839 1.59c.653 0 1.282-.13 1.877-.35a5.366 5.366 0 0 0 1.462 2.692 5.396 5.396 0 0 0 6.054 1.107 5.379 5.379 0 0 0 1.411 2.539 5.392 5.392 0 0 0 3.837 1.59c.491 0 .965-.087 1.426-.213a5.382 5.382 0 0 0 1.505 2.963 5.396 5.396 0 0 0 7.458.174l5.456 4.103a5.75 5.75 0 0 0 3.463 1.155 5.776 5.776 0 0 0 5.78-5.516c.442.108.893.181 1.354.181.273 0 .549-.019.825-.059a5.747 5.747 0 0 0 3.808-2.249 5.721 5.721 0 0 0 1.141-3.036 5.7 5.7 0 0 0 2.545.212 5.734 5.734 0 0 0 3.803-2.248 5.722 5.722 0 0 0 1.157-3.476c.281.042.565.069.853.069.273 0 .548-.02.823-.059a5.744 5.744 0 0 0 3.806-2.247 5.74 5.74 0 0 0 .797-5.478c3.716-2.042 5.318-5.134 5.89-6.582l1.508-.539a3.973 3.973 0 0 0 5.157 1.266l10.362-5.556a3.977 3.977 0 0 0 1.626-5.379zm-96.912 8.294L11.884 62.85c-.228-.122-.395-.328-.47-.579s-.05-.515.072-.743L28.013 30.7a.978.978 0 0 1 1.319-.398l10.362 5.553a.968.968 0 0 1 .47.579.96.96 0 0 1-.072.739L23.566 68.007a1.002 1.002 0 0 1-1.319.399zm10.011 12.93a2.432 2.432 0 0 1 .002-3.433l3.323-3.322a2.416 2.416 0 0 1 1.719-.712 2.41 2.41 0 0 1 1.713.707c.947.949.947 2.491.002 3.437l-3.324 3.324c-.919.916-2.517.916-3.435-.001zm8.897 4.645c-.649 0-1.26-.253-1.721-.714a2.4 2.4 0 0 1-.708-1.713c0-.649.253-1.26.712-1.719l6.101-6.099a2.409 2.409 0 0 1 1.715-.712 2.432 2.432 0 0 1 1.717 4.147l-2.991 2.99-1.202 1.2-.004.005-1.903 1.903a2.413 2.413 0 0 1-1.716.712zm5.746 2.934a2.43 2.43 0 0 1-.008-3.425l1.333-1.333 2-1.997a2.406 2.406 0 0 1 1.713-.71 2.41 2.41 0 0 1 1.718.714c.458.458.711 1.066.711 1.714s-.252 1.258-.712 1.716l-1.508 1.507-.599.598-.005.006-1.211 1.211c-.918.916-2.515.916-3.432-.001zm8.484 5.048c-.001 0-.001 0 0 0a2.416 2.416 0 0 1-1.716-.708 2.409 2.409 0 0 1-.711-1.718c0-.645.251-1.251.706-1.708l.962-.962.632-.63a2.413 2.413 0 0 1 1.718-.711c.648 0 1.257.251 1.713.707.946.947.945 2.491.006 3.436l-1.594 1.584a2.416 2.416 0 0 1-1.716.71zm36.036-13.384a2.76 2.76 0 0 1-1.83 1.081 2.77 2.77 0 0 1-2.069-.539l-1.395-1.032c-.033-.026-.059-.059-.093-.084-.038-.029-.08-.048-.12-.072L72.283 69.848a1.5 1.5 0 0 0-1.784 2.412l13.83 10.229a2.754 2.754 0 0 1 .456 3.803 2.755 2.755 0 0 1-1.829 1.081 2.753 2.753 0 0 1-2.042-.517L67.89 76.773a1.5 1.5 0 0 0-1.836 2.372l10.43 8.075c.075.092.158.179.257.253a2.765 2.765 0 0 1 1.083 1.834 2.753 2.753 0 0 1-.528 2.056 2.769 2.769 0 0 1-1.833 1.083 2.734 2.734 0 0 1-2.035-.513l-10.586-8.267a1.5 1.5 0 1 0-1.846 2.364l8.341 6.514c.078.097.164.189.268.268.594.447.978 1.098 1.082 1.833s-.085 1.466-.531 2.059a2.786 2.786 0 0 1-3.89.551l-5.131-3.858c1.759-2.133 1.668-5.294-.324-7.288a5.371 5.371 0 0 0-3.508-1.553c.028-.225.066-.448.066-.679a5.38 5.38 0 0 0-4.796-5.365 5.426 5.426 0 0 0-5.319-6.488 5.384 5.384 0 0 0-3.837 1.592l-.987.986a5.37 5.37 0 0 0-1.293-2.147 5.396 5.396 0 0 0-3.834-1.585 5.4 5.4 0 0 0-3.84 1.589l-.442.441a1.483 1.483 0 0 0-.235-.446c-1.266-1.613-1.902-3.883-1.908-3.904a1.5 1.5 0 0 0-1.005-1.039l-2.263-.697 13.571-25.32 3.267 2.288c.252.177.552.271.86.271h9.206l-6.198 4.729c-.3.229-.503.563-.568.935l-2.445 14.024c-.095.546.118 1.1.555 1.44.767.599 2.085 1.184 3.691 1.184 1.864 0 4.116-.788 6.345-3.256a1.35 1.35 0 0 0 .083-.101L60.67 56.8l2.231-.816 27.973 20.708a2.744 2.744 0 0 1 1.079 1.824 2.76 2.76 0 0 1-.532 2.063zm7.4-12.84a1.52 1.52 0 0 0-.945 1.026c-.043.157-1.051 3.669-5.031 5.685-.063-.051-.113-.114-.179-.164L75.353 61.469a30.01 30.01 0 0 0 2.081.076c2.426 0 5.142-.305 7.828-1.218a1.5 1.5 0 0 0-.966-2.84c-6.284 2.138-13.005.411-14.246.056l-3.777-2.796a1.498 1.498 0 0 0-1.065-2.801l-5.982 2.188a1.498 1.498 0 0 0-.681.504l-4.921 6.508c-2.271 2.488-4.176 2.378-5.18 2.04l2.158-12.374 14.167-10.809 17.64 2.59c.236.035.477.012.703-.064l3.603-1.232 13.84 25.823zm17.294-4.889-10.36 5.555a1.001 1.001 0 0 1-1.321-.396L87.907 37.171c-.121-.226-.146-.488-.07-.739s.243-.457.47-.578l10.359-5.552a.98.98 0 0 1 1.322.396l16.527 30.83a.978.978 0 0 1-.4 1.322z" fill="#000000" opacity="1" data-original="#000000"></path></g></svg>