<svg xmlns="http://www.w3.org/2000/svg" version="1.1" xmlns:xlink="http://www.w3.org/1999/xlink" width="42" height="42" x="0" y="0" viewBox="0 0 479.998 479.998" style="enable-background:new 0 0 512 512" xml:space="preserve" class=""><g><path d="M478.767 235.735c-49.997-79.763-136.66-129.139-230.768-131.48V39.999h-16v64.256c-94.108 2.341-180.771 51.717-230.768 131.48a8.002 8.002 0 0 0 0 8.528c49.997 79.763 136.66 129.139 230.768 131.48v64.256h16v-64.256c94.108-2.341 180.771-51.717 230.768-131.48a7.998 7.998 0 0 0 0-8.528zm-461.256 4.264a264.797 264.797 0 0 1 137.84-106.264 135.721 135.721 0 0 0-50.944 98.264H39.999v16h64.408a135.721 135.721 0 0 0 50.944 98.264 264.797 264.797 0 0 1-137.84-106.264zm214.488 72v47.592c-59.865-4.066-107.526-51.727-111.592-111.592h47.592v-16h-47.592c4.066-59.865 51.727-107.526 111.592-111.592v47.592h16v-47.592c59.865 4.066 107.526 51.726 111.592 111.592h-47.592v16h47.592c-4.066 59.865-51.727 107.526-111.592 111.592v-47.592h-16zm230.488-72a264.797 264.797 0 0 1-137.84 106.264 135.721 135.721 0 0 0 50.944-98.264h64.408v-16h-64.408a135.72 135.72 0 0 0-50.944-98.264 264.799 264.799 0 0 1 137.84 106.264z" fill="#B6956A" opacity="1" data-original="#000000"></path><path d="M239.999 183.999c-30.928 0-56 25.072-56 56 .035 30.913 25.087 55.965 56 56 30.928 0 56-25.072 56-56s-25.072-56-56-56zm0 96c-22.091 0-40-17.909-40-40 .026-22.08 17.92-39.974 40-40 22.091 0 40 17.909 40 40s-17.908 40-40 40zM47.999 39.999a8 8 0 0 0-8 8v64h16v-56h56v-16h-64zM431.999 39.999h-64v16h56v56h16v-64a8 8 0 0 0-8-8zM423.999 367.999v56h-56v16h64a8 8 0 0 0 8-8v-64h-16zM55.999 423.999v-56h-16v64a8 8 0 0 0 8 8h64v-16h-56z" fill="#B6956A" opacity="1" data-original="#000000"></path></g></svg>